<?xml version="1.0" encoding="UTF-8"?>
<svg id="_레이어_1" data-name="레이어 1" xmlns="http://www.w3.org/2000/svg" viewBox="0 0 583.22 127.36">
  <defs>
    <style>
      .cls-1 {
        stroke-linejoin: round;
        stroke-width: 18px;
      }

      .cls-1, .cls-2 {
        fill: none;
        stroke: #fff;
      }

      .cls-2 {
        stroke-miterlimit: 10;
        stroke-width: 16px;
      }
    </style>
  </defs>
  <path class="cls-2" d="m61.37,15.54s-20.2-17.58-35.41.95,3.78,35.67,23.29,46.58,16.16,27.08,6.18,35.64-40.1,9.92-47.61-24.24"/>
  <path class="cls-2" d="m88.13,48.74s-6.33,45.69,5.79,56.14,28.04-.48,30.18-7.37.95-48.78.95-48.78"/>
  <line class="cls-2" x1="151.58" y1=".81" x2="151.58" y2="115.11"/>
  <polyline class="cls-1" points="173.29 49.78 198 115.11 216.91 55.79 235.31 112.25 261.68 53.62"/>
  <path class="cls-1" d="m281.17,4.96v113.4s-10.93-55.34,22.34-62.45c33.27-7.11,18.53,63.94,18.53,63.94"/>
  <path class="cls-1" d="m344.85,73.52s8.79-19.25,25.66-18.06c16.87,1.19,9.5,61.07,9.5,61.07,0,0,4.72-38.55-2.85-38.92s-39.21,8.93-32.32,28.89c6.89,19.96,33.74-6.61,33.74-6.61"/>
  <path class="cls-1" d="m435.86,53.62s-21.15-9.81-30.42,10.87c-9.27,20.67,24.24,14.73,24.71,30.65s-25.9,14.73-37.54,2.38"/>
  <path class="cls-1" d="m476.61,47.86c-11.04,1.43-26.01,15.48-25.3,31.98s12.12,29.15,26.61,29.16,24.95-15.28,23.05-34.29-20.44-27.53-26.38-28.96"/>
  <path class="cls-1" d="m552.54,38.83s-23.06,2.94-26.38,32.48c-3.33,29.62,18.3,30.11,28.28,29.63,9.98-.48,20.67-10.91,19.72-36.21s-24.4-27.09-24.4-27.09"/>
</svg>