<?xml version="1.0" encoding="UTF-8"?>
<svg id="_레이어_1" data-name="레이어 1" xmlns="http://www.w3.org/2000/svg" viewBox="0 0 576.37 115.03">
  <defs>
    <style>
      .cls-1 {
        fill: #fff;
        stroke-width: 0px;
      }
    </style>
  </defs>
  <path class="cls-1" d="m54.3,7.87c0-7.13-16.87-10.34-30.89-5.7C11.64,6.06,3.45,28.78,13.43,43.99s32.32,20.91,35.64,31.84-8.08,25.66-20.91,20.44-15.68-11.88-16.63-18.06-3.33-9.03-9.5-4.75,2.38,25.66,18.06,30.42,38.02,5.7,43.25-16.16-5.82-23.29-31.66-45.15C5.82,20.7,29.41,4.71,45.57,10.89c10.46,4.28,8.73-3.02,8.73-3.02Z"/>
  <path class="cls-1" d="m82.34,45.42c-5.7-1.43-9.03,9.5-8.55,26.14s2.85,31.37,15.21,37.07,31.37-.95,35.17-15.21,3.8-37.54,0-44.67-11.88,11.41-11.41,19.96,5.23,26.14-4.28,29.94-18.06,2.38-19.49-5.23-1.43-33.9-.95-40.24-5.7-7.76-5.7-7.76Z"/>
  <path class="cls-1" d="m148.87,1.63c5.34.05,3.33,4.34,4.28,20.97s0,84.05,0,84.05c0,0,.9,3.67-1.93,4.01s-10.9,0-10.9,0c0,0-2.38.34-1.9-6.79s-1.08-85.54-.06-88.4,4.34-13.9,10.52-13.84Z"/>
  <path class="cls-1" d="m161.47,51.83c-.82,2.74,25.9,60.12,25.9,60.12,0,0,.48,2.85,3.56,2.61s4.28-4.04,7.6-13.31,9.62-27.21,13.9-26.97,11.29,37.46,15.09,40.3,10.69-16.41,12.12-21.16,21.15-38.65,21.15-40.24-10.46-1.03-13.78,0-13.37,37.74-16.22,37.21c-2.61-.49-9.92-35.62-12.3-37.21s-15.21-.42-15.68.85-7.84,36.18-9.98,35.47-11.18-36.86-16.41-38.05-14.24-1.99-14.95.39Z"/>
  <path class="cls-1" d="m281.94,4.66c-3.68-2.21-14.97,13.9-14.26,23.17s-.03,82.83-.03,82.83c0,0-1.04,3.55,4.67,4.2s9.27-.5,9.62-4.2-.48-38.16,0-42.55c.21-1.91,4.99-7.25,8.55-8.26s17.47-2.79,19.6,8.62c2.14,11.41,0,39.92,0,39.92,0,0-2.14,7.25,3.92,6.48s10.34.39,10.34-8.21,3.21-44.52-6.77-53.47-27.8-3.88-32.08,0-3.21.32-3.56-16.44,3.56-29.94,0-32.08Z"/>
  <path class="cls-1" d="m381.03,63.71c-2.14-11.17-14.36-17.77-22.57-16.4-5.7.95-7.37,2.14-13.54,5.86s-9.98,13.39-9.5,14.57c.48,1.19,10.93.95,13.07.95s4.75-9.51,10.69-10.69c5.94-1.19,6.42,1.9,7.84,4.75,1.43,2.85,2.38,9.27-.48,10.46-2.85,1.19-19.49,2.61-26.14,9.44-6.65,6.83-11.41,20.26-3.33,27.9,8.08,7.64,21.86,1.63,25.19-.99,3.33-2.61,4.75-4.04,4.75-1.9s2.14,3.09,7.84,2.85c5.7-.24,5.7-1.43,6.18-3.8s2.14-31.84,0-43.01Zm-23.57,41.58c-12.07,3.09-15.87-14.02-3.75-18.77,12.12-4.75,10.93-2.82,13.54-5.81,1.71-1.96,2.28,21.49-9.79,24.58Z"/>
  <path class="cls-1" d="m412.87,42.8c8.55-.71,18.77-.71,17.11,2.61s-5.76,9.03-8.46,9.5-9.12-1.74-13.87,2.38c-4.88,4.23-4.28,12.83,8.79,15.92,13.07,3.09,14.97,18.3,14.73,22.1s-4.04,11.41-16.4,14.02-24.48,1.66-25.66-7.84c-1.19-9.5,3.09-11.17,5.47-11.41s1.66,13.31,14.02,10.93,11.41-7.13,7.37-11.41-22.1-9.98-23.29-19.96c-1.19-9.98.24-15.57,9.03-22.52,4.78-3.53,11.17-4.34,11.17-4.34Z"/>
  <path class="cls-1" d="m504,70.25c-1.97-21.07-19.27-30.59-32.44-30.06-17.82.71-36.12,22.57-34.69,40.41,1.43,17.84,21.62,29.68,39.92,27.55,18.3-2.14,29.35-15.01,27.21-37.9Zm-16.4,7.73c-.36,15.44-5,25.06-15.69,25.06s-18.89-11.41-17.82-26.91c1.07-15.5,7.83-27.27,17.82-26.91,10.69.38,16.04,13.32,15.69,28.76Z"/>
  <path class="cls-1" d="m576.36,59.75c-.36-19.06-19.25-27.64-31.37-26.92,0,0-30.3,2.85-33.15,32.44s17.47,39.21,36,37.78,28.87-24.24,28.51-43.29Zm-17.11,10.5c-1.78,11.76-5.17,22.74-17.47,22.89-11.76.15-14.61-18.25-12.48-31.09s8.96-20.02,17.11-19.64c9.62.45,14.61,16.08,12.83,27.84Z"/>
</svg>